<svg width="28" height="28" viewBox="0 0 28 28" fill="none" xmlns="http://www.w3.org/2000/svg">
<path d="M4.66699 22.1667V7.23333C4.66699 5.92654 4.66699 5.27315 4.92131 4.77402C5.14501 4.33498 5.50197 3.97802 5.94101 3.75432C6.44014 3.5 7.09354 3.5 8.40033 3.5H19.6003C20.9071 3.5 21.5605 3.5 22.0596 3.75432C22.4987 3.97802 22.8556 4.33498 23.0793 4.77402C23.3337 5.27315 23.3337 5.92654 23.3337 7.23333V19.8333H7.00033C5.71166 19.8333 4.66699 20.878 4.66699 22.1667ZM4.66699 22.1667C4.66699 23.4553 5.71166 24.5 7.00033 24.5H23.3337M10.5003 8.16667H17.5003M10.5003 12.8333H17.5003M22.167 19.8333V24.5" stroke="currentColor" stroke-width="2" stroke-linecap="round" stroke-linejoin="round"/>
</svg>
