<svg width="24" height="22" viewBox="0 0 24 22" fill="none" xmlns="http://www.w3.org/2000/svg">
<path d="M17.8333 16.8333H17.845M18.3 13.3333H19C20.0872 13.3333 20.6308 13.3333 21.0596 13.5109C21.6313 13.7477 22.0856 14.202 22.3224 14.7737C22.5 15.2025 22.5 15.7461 22.5 16.8333C22.5 17.9205 22.5 18.4641 22.3224 18.8929C22.0856 19.4646 21.6313 19.9189 21.0596 20.1557C20.6308 20.3333 20.0872 20.3333 19 20.3333H5C3.9128 20.3333 3.3692 20.3333 2.94041 20.1557C2.36867 19.9189 1.91443 19.4646 1.67761 18.8929C1.5 18.4641 1.5 17.9205 1.5 16.8333C1.5 15.7461 1.5 15.2025 1.67761 14.7737C1.91443 14.202 2.36867 13.7477 2.94041 13.5109C3.3692 13.3333 3.9128 13.3333 5 13.3333H5.7M12 14.5V1.66663M12 14.5L8.5 11M12 14.5L15.5 11" stroke="white" stroke-width="2" stroke-linecap="round" stroke-linejoin="round"/>
</svg>
