<svg width="28" height="28" viewBox="0 0 28 28" fill="none" xmlns="http://www.w3.org/2000/svg">
<path d="M7 8.16667H8.16667M7 11.6667H8.16667M12.8333 11.6667H14M12.8333 15.1667H14M7 15.1667H8.16667M12.8333 8.16667H14M8.16667 24.5V21C8.16667 19.7113 9.21134 18.6667 10.5 18.6667C11.7887 18.6667 12.8333 19.7113 12.8333 21V24.5H8.16667ZM8.16667 24.5H3.5V5.36667C3.5 4.71327 3.5 4.38657 3.62716 4.13701C3.73901 3.91749 3.91749 3.73901 4.13701 3.62716C4.38657 3.5 4.71327 3.5 5.36667 3.5H15.6333C16.2867 3.5 16.6134 3.5 16.863 3.62716C17.0825 3.73901 17.261 3.91749 17.3728 4.13701C17.5 4.38657 17.5 4.71327 17.5 5.36667V10.5M22.9833 15.75C22.9833 16.7165 22.1998 17.5 21.2333 17.5C20.2668 17.5 19.4833 16.7165 19.4833 15.75C19.4833 14.7835 20.2668 14 21.2333 14C22.1998 14 22.9833 14.7835 22.9833 15.75ZM25.0833 24.5V23.9167C25.0833 22.3058 23.7775 21 22.1667 21H20.4167C18.8058 21 17.5 22.3058 17.5 23.9167V24.5H25.0833Z" stroke="currentColor" stroke-width="2" stroke-linecap="round" stroke-linejoin="round"/>
</svg>
