<svg width="21" height="20" viewBox="0 0 21 20" fill="none" xmlns="http://www.w3.org/2000/svg">
<path d="M18.25 6.31666H13.6C13.275 6.31666 13.0167 6.05833 13.0167 5.73333C13.0167 5.40833 13.275 5.14999 13.6 5.14999H18.25C18.575 5.14999 18.8333 5.40833 18.8333 5.73333C18.8333 6.05833 18.575 6.31666 18.25 6.31666Z" fill="white"/>
<path d="M5.85 6.31666H2.75C2.425 6.31666 2.16667 6.05833 2.16667 5.73333C2.16667 5.40833 2.425 5.14999 2.75 5.14999H5.85C6.175 5.14999 6.43333 5.40833 6.43333 5.73333C6.43333 6.05833 6.16667 6.31666 5.85 6.31666Z" fill="white"/>
<path d="M11.4917 5.73335C11.4917 7.13707 10.3537 8.27501 8.95 8.27501C7.54628 8.27501 6.40833 7.13707 6.40833 5.73335C6.40833 4.32962 7.54628 3.19168 8.95 3.19168C10.3537 3.19168 11.4917 4.32962 11.4917 5.73335Z" stroke="white" stroke-width="1.5"/>
<path d="M18.25 14.8417H15.15C14.825 14.8417 14.5667 14.5833 14.5667 14.2583C14.5667 13.9333 14.825 13.675 15.15 13.675H18.25C18.575 13.675 18.8333 13.9333 18.8333 14.2583C18.8333 14.5833 18.575 14.8417 18.25 14.8417Z" fill="white"/>
<path d="M7.4 14.8417H2.75C2.425 14.8417 2.16667 14.5833 2.16667 14.2583C2.16667 13.9333 2.425 13.675 2.75 13.675H7.4C7.725 13.675 7.98333 13.9333 7.98333 14.2583C7.98333 14.5833 7.71667 14.8417 7.4 14.8417Z" fill="white"/>
<path d="M14.5917 14.2667C14.5917 15.6704 13.4537 16.8083 12.05 16.8083C10.6463 16.8083 9.50833 15.6704 9.50833 14.2667C9.50833 12.8629 10.6463 11.725 12.05 11.725C13.4537 11.725 14.5917 12.8629 14.5917 14.2667Z" stroke="white" stroke-width="1.5"/>
</svg>
