<svg width="22" height="24" viewBox="0 0 22 24" fill="none" xmlns="http://www.w3.org/2000/svg">
<path d="M18.1667 8.5L11.1667 1.5M18.1667 8.5H14.9C13.5933 8.5 12.9399 8.5 12.4407 8.24568C12.0017 8.02198 11.6447 7.66502 11.421 7.22598C11.1667 6.72685 11.1667 6.07346 11.1667 4.76667V1.5M18.1667 8.5V10.8333M11.1667 1.5H5.56671C4.25992 1.5 3.60652 1.5 3.1074 1.75432C2.66835 1.97802 2.3114 2.33498 2.08769 2.77402C1.83337 3.27315 1.83337 3.92654 1.83337 5.23333V18.7667C1.83337 20.0735 1.83337 20.7269 2.08769 21.226C2.3114 21.665 2.66835 22.022 3.1074 22.2457C3.60652 22.5 4.25992 22.5 5.56671 22.5H10M6.50004 17.8333H8.83337M6.50004 13.1667H11.1667M6.50004 8.5H7.66671M18.48 20.48L20.5 22.5M19.3334 18.4167C19.3334 20.0275 18.0275 21.3333 16.4167 21.3333C14.8059 21.3333 13.5 20.0275 13.5 18.4167C13.5 16.8058 14.8059 15.5 16.4167 15.5C18.0275 15.5 19.3334 16.8058 19.3334 18.4167Z" stroke="currentColor" stroke-width="2" stroke-linecap="round" stroke-linejoin="round"/>
</svg>
